<?xml version="1.0" encoding="utf-8"?>
<!-- Generator: Adobe Illustrator 18.1.1, SVG Export Plug-In . SVG Version: 6.00 Build 0)  -->
<svg version="1.1" id="Layer_1" xmlns="http://www.w3.org/2000/svg" xmlns:xlink="http://www.w3.org/1999/xlink" x="0px" y="0px"
	 viewBox="-242 334 126 126" enable-background="new -242 334 126 126" xml:space="preserve">
<g>
	<path fill="#40d02d" d="M-180.6,423.6c-1.3,0-2.1,0.1-2.6,0.2V440c0.5,0.1,1.3,0.1,2,0.1c5.1,0,8.5-2.8,8.5-8.8
		C-172.6,426.4-175.7,423.6-180.6,423.6z"/>
	<path fill="#40d02d" d="M-202.3,423.4c-1.1,0-2,0.1-2.4,0.2v7.4c0.5,0.1,1,0.1,1.9,0.1c3,0,4.8-1.6,4.8-4.1
		C-197.9,424.9-199.6,423.4-202.3,423.4z"/>
	<path fill="#40d02d" d="M-141,369.8c0-0.5-0.2-0.9-0.5-1.4l-20.2-23.1l0,0c-0.1-0.1-0.3-0.2-0.4-0.3l-0.1-0.1
		c-0.1-0.1-0.3-0.1-0.4-0.2h-0.1c-0.1,0-0.3-0.1-0.5-0.1h-49.6c-2.3,0-4.1,1.9-4.1,4.1v96.5c0,2.3,1.9,4.1,4.1,4.1h67.7
		c2.3,0,4.1-1.9,4.1-4.1V370C-141,370-141,369.9-141,369.8z M-212.9,414.5v-65.6h47.6v21.1c0,1.1,0.9,2.1,2.1,2.1h18.2v42.6
		L-212.9,414.5L-212.9,414.5z"/>
</g>
<g>
	<path fill="#FFFFFF" d="M-172.3,443.6c-2.3,0-4.5-0.1-6.8,0c-1.6,0.1-1.9-0.5-2-2c0-4.2-0.1-4.1-4.2-4.2c-1.8,0-3,0.4-3.5,2.1
		c-1.4,3.7-4,4.3-7.6,4.1c-3.8-0.2-7.6-0.1-10.9-2.4c-4-2.8-6.1-7.5-5-11.5c1.3-4.8,5.9-9.2,10.7-9.5c3.1-0.2,6.2-0.1,9.3-0.1
		c1.1,0,1.5,0.4,1.6,1.6c0.3,4.8,0.3,4.8-4.4,4.8c-1.5,0-2.9,0-4.4,0c-2.8,0-5,2.1-5.2,4.6c-0.2,2.7,2,5.6,4.6,5.9
		c1.4,0.2,2.8,0.1,4.1,0c0.9-0.1,1.5-0.9,1.5-1.8c-0.1-0.9-1-0.5-1.6-0.5c-4.5-0.2-4.5-0.1-4.3-4.8c0.1-1.1,0.4-1.6,1.6-1.6
		c2.5,0.1,4.8,0,7.3,0c1.3,0,1.9-0.4,2.5-1.5c1.5-2.4,2.5-5.4,4.6-6.6c2.3-1.1,5.5-0.4,8.3-0.4c3.4,0,7,0.1,10.4,0
		c1.8-0.1,2.4,0.5,2.2,2.2c0,0.1,0,0.2,0,0.2c-0.1,4.2,0.5,3.5-3.5,3.7c-1.8,0-3.3,0-5.1,0c-0.9,0-1.6,0.1-1.6,1.4
		c0,1.1,0.8,1,1.5,1c2.4,0,4.7,0.1,7,0c1.3,0,1.7,0.3,1.8,1.7c0.2,4.7,0.2,4.7-4.4,4.7c-1.5,0-2.9,0-4.4,0c-0.8,0-1.5,0-1.5,1.1
		c0,1,0.7,0.9,1.4,0.9c2.3,0,4.5,0.1,6.8,0c1.4,0,2.1,0.3,2.1,1.9c-0.1,5.9,0.7,4.6-4.6,4.8C-169.5,443.6-171,443.6-172.3,443.6z
		 M-183.3,430.9c2.7,0.4,2.7,0.3,2.1-3.2C-182.1,428.6-182.8,429.7-183.3,430.9z"/>
	<path fill="#FFFFFF" d="M-156.4,420.3c1.1,0,2.3,0,3.3,0c5.2,0.1,8.3,4.5,6.6,9.6c-0.3,1-0.4,1.8,0.1,2.9c2.2,4.5-0.3,9.4-5.2,10.4
		c-3.2,0.7-6.5,0.4-9.6,0.4c-0.9,0-1.3-0.4-1.4-1.3c-0.7-4.8-0.3-5.3,4.5-5.3c1,0,2.1,0,3.2,0c0.8,0,2.1,0.4,2.1-0.9
		c0-1.5-1.4-1-2.3-1.1c-1.9,0-3.7-0.1-5.5,0c-1.7,0.1-2.1-0.5-2.1-2.1c0-4.3-0.1-4.3,4.3-4.3c1,0,2.1,0,3.2,0c0.8,0,1.8-0.1,1.7-1.3
		c0-1-0.8-1-1.7-1c-1.9,0-3.7-0.1-5.5,0c-1.5,0.1-2.1-0.3-2-1.9c0.1-5.1-0.5-4.1,4-4.2C-157.7,420.3-157,420.3-156.4,420.3z"/>
</g>
</svg>
