<?xml version="1.0" encoding="utf-8"?>
<!-- Generator: Adobe Illustrator 18.1.1, SVG Export Plug-In . SVG Version: 6.00 Build 0)  -->
<svg version="1.1" id="Layer_1" xmlns="http://www.w3.org/2000/svg" xmlns:xlink="http://www.w3.org/1999/xlink" x="0px" y="0px"
	 viewBox="-242 334 126 126" enable-background="new -242 334 126 126" xml:space="preserve">
<g>
	<path fill="#FFFFFF" d="M-173.3,442c-2.2,0-4.3-0.1-6.5,0c-1.5,0.1-1.8-0.5-1.9-1.9c0-4-0.1-3.9-4-4c-1.7,0-2.9,0.4-3.4,2
		c-1.3,3.5-3.8,4.1-7.3,3.9c-3.6-0.2-7.3-0.1-10.4-2.3c-3.8-2.7-5.8-7.2-4.8-11c1.2-4.6,5.7-8.8,10.3-9.1c3-0.2,5.9-0.1,8.9-0.1
		c1.1,0,1.4,0.4,1.5,1.5c0.3,4.6,0.3,4.6-4.2,4.6c-1.4,0-2.8,0-4.2,0c-2.7,0-4.8,2-5,4.4c-0.2,2.6,1.9,5.4,4.4,5.7
		c1.3,0.2,2.7,0.1,3.9,0c0.9-0.1,1.4-0.9,1.4-1.7c-0.1-0.9-1-0.5-1.5-0.5c-4.3-0.2-4.3-0.1-4.1-4.6c0.1-1.1,0.4-1.5,1.5-1.5
		c2.4,0.1,4.6,0,7,0c1.2,0,1.8-0.4,2.4-1.4c1.4-2.3,2.4-5.2,4.4-6.3c2.2-1.1,5.3-0.4,8-0.4c3.3,0,6.7,0.1,10,0
		c1.7-0.1,2.3,0.5,2.1,2.1c0,0.1,0,0.2,0,0.2c-0.1,4,0.5,3.4-3.4,3.5c-1.7,0-3.2,0-4.9,0c-0.9,0-1.5,0.1-1.5,1.3c0,1.1,0.8,1,1.4,1
		c2.3,0,4.5,0.1,6.7,0c1.2,0,1.6,0.3,1.7,1.6c0.2,4.5,0.2,4.5-4.2,4.5c-1.4,0-2.8,0-4.2,0c-0.8,0-1.4,0-1.4,1.1c0,1,0.7,0.9,1.3,0.9
		c2.2,0,4.3,0.1,6.5,0c1.3,0,2,0.3,2,1.8c-0.1,5.7,0.7,4.4-4.4,4.6C-170.6,442-172,442-173.3,442z M-183.8,429.8
		c2.6,0.4,2.6,0.3,2-3.1C-182.7,427.6-183.3,428.7-183.8,429.8z"/>
	<path fill="#FFFFFF" d="M-158,419.7c1.1,0,2.2,0,3.2,0c5,0.1,8,4.3,6.3,9.2c-0.3,1-0.4,1.7,0.1,2.8c2.1,4.3-0.3,9-5,10
		c-3.1,0.7-6.2,0.4-9.2,0.4c-0.9,0-1.2-0.4-1.3-1.2c-0.7-4.6-0.3-5.1,4.3-5.1c1,0,2,0,3.1,0c0.8,0,2,0.4,2-0.9c0-1.4-1.3-1-2.2-1.1
		c-1.8,0-3.5-0.1-5.3,0c-1.6,0.1-2-0.5-2-2c0-4.1-0.1-4.1,4.1-4.1c1,0,2,0,3.1,0c0.8,0,1.7-0.1,1.6-1.2c0-1-0.8-1-1.6-1
		c-1.8,0-3.5-0.1-5.3,0c-1.4,0.1-2-0.3-1.9-1.8c0.1-4.9-0.5-3.9,3.8-4C-159.3,419.7-158.6,419.7-158,419.7z"/>
</g>
<g>
	<g>
		<path d="M-143.3,370.8c0-0.5-0.2-0.9-0.5-1.3l-19-21.7c0,0,0,0,0,0c-0.1-0.1-0.2-0.2-0.4-0.3c0,0-0.1-0.1-0.1-0.1
			c-0.1-0.1-0.2-0.1-0.4-0.2c0,0-0.1,0-0.1,0c-0.1,0-0.3-0.1-0.4-0.1H-211c-2.1,0-3.9,1.7-3.9,3.9v90.9c0,2.1,1.7,3.9,3.9,3.9h63.8
			c2.1,0,3.9-1.7,3.9-3.9V371C-143.3,370.9-143.3,370.9-143.3,370.8z M-190.7,422.1h-6.4v19h-5.3v-19h-6.3v-4.5h18L-190.7,422.1
			L-190.7,422.1z M-174.9,441.1l-2.1-4.2c-0.9-1.6-1.4-2.9-2.1-4.2h-0.1c-0.5,1.4-1.1,2.6-1.8,4.2l-1.9,4.2h-6.1l6.8-11.9l-6.5-11.6
			h6.1l2.1,4.3c0.7,1.4,1.2,2.6,1.8,3.9h0.1c0.6-1.5,1-2.5,1.6-3.9l2-4.3h6.1l-6.6,11.5l7,12H-174.9L-174.9,441.1z M-149.4,422.1
			h-6.4v19h-5.3v-19h-6.3v-4.5h18L-149.4,422.1L-149.4,422.1z M-211,412.8V351h44.8v19.8c0,1.1,0.9,1.9,1.9,1.9h17.1v40.1H-211z"/>
		<path d="M-197.2,373.7h21.5c0.7,0,1.3-0.6,1.3-1.3s-0.6-1.3-1.3-1.3h-21.5c-0.7,0-1.3,0.6-1.3,1.3S-197.9,373.7-197.2,373.7z"/>
		<path d="M-162,381.4h-35.2c-0.7,0-1.3,0.6-1.3,1.3c0,0.7,0.6,1.3,1.3,1.3h35.2c0.7,0,1.3-0.6,1.3-1.3
			C-160.7,382-161.3,381.4-162,381.4z"/>
		<path d="M-162,391.7h-35.2c-0.7,0-1.3,0.6-1.3,1.3c0,0.7,0.6,1.3,1.3,1.3h35.2c0.7,0,1.3-0.6,1.3-1.3
			C-160.7,392.2-161.3,391.7-162,391.7z"/>
		<path d="M-162,402.1h-35.2c-0.7,0-1.3,0.6-1.3,1.3c0,0.7,0.6,1.3,1.3,1.3h35.2c0.7,0,1.3-0.6,1.3-1.3
			C-160.7,402.7-161.3,402.1-162,402.1z"/>
	</g>
</g>
</svg>
